<?xml version="1.0" encoding="UTF-8"?>
<svg version="1.1" xmlns="http://www.w3.org/2000/svg" width="1080" height="1080">
<path d="M0 0 C175.56 0 351.12 0 532 0 C532 32.67 532 65.34 532 99 C460.39 99 388.78 99 315 99 C315.495 246.015 315.495 246.015 316 396 C324.22107109 387.05918328 324.22107109 387.05918328 332.265625 377.984375 C336.55679952 373.0746528 340.95802108 368.26125182 345.328125 363.421875 C348.72344938 359.6569915 352.11058342 355.88806449 355.4375 352.0625 C359.09057956 347.86696779 362.84505549 343.76626447 366.59375 339.65625 C368.58648953 337.45647259 370.5533814 335.24044782 372.5 333 C376.12944941 328.82270917 379.8647902 324.74462761 383.59375 320.65625 C385.58648953 318.45647259 387.5533814 316.24044782 389.5 314 C393.12944941 309.82270917 396.8647902 305.74462761 400.59375 301.65625 C402.58648953 299.45647259 404.5533814 297.24044782 406.5 295 C410.12944941 290.82270917 413.8647902 286.74462761 417.59375 282.65625 C419.58648953 280.45647259 421.5533814 278.24044782 423.5 276 C427.12944941 271.82270917 430.8647902 267.74462761 434.59375 263.65625 C436.58648953 261.45647259 438.5533814 259.24044782 440.5 257 C444.12944941 252.82270917 447.8647902 248.74462761 451.59375 244.65625 C453.58648953 242.45647259 455.5533814 240.24044782 457.5 238 C461.12944941 233.82270917 464.8647902 229.74462761 468.59375 225.65625 C470.58648953 223.45647259 472.5533814 221.24044782 474.5 219 C478.12944941 214.82270917 481.8647902 210.74462761 485.59375 206.65625 C487.58648953 204.45647259 489.5533814 202.24044782 491.5 200 C495.1275796 195.82486121 498.85632411 191.74514488 502.59765625 187.671875 C504.62630227 185.4156248 506.53160517 183.10837345 508.4375 180.75 C515.86593297 172.23788975 526.82556069 167.09553327 538 166 C552.46992926 165.11320314 566.26701082 168.65277304 577.8125 177.75 C586.36830784 185.78538157 593.52765935 198.10215622 594.09628594 210.01766074 C594.14279555 212.55774953 594.15549216 215.09615483 594.15821838 217.63667297 C594.16315636 218.61283056 594.16809434 219.58898815 594.17318195 220.59472626 C594.18854976 223.86824354 594.19691567 227.1417412 594.20532227 230.4152832 C594.21490135 232.76082024 594.22491145 235.10635554 594.23532104 237.45188904 C594.26237287 243.82327955 594.28338097 250.19467748 594.30332303 256.56609368 C594.32296681 262.54889774 594.34711489 268.53168288 594.37124526 274.51447012 C594.41888936 286.36355657 594.46216215 298.21265479 594.50268555 310.06176758 C594.54205667 321.57121699 594.58348677 333.08065596 594.62768555 344.59008789 C594.63040982 345.29967922 594.63313409 346.00927055 594.63594092 346.74036465 C594.64962066 350.30022057 594.66334088 353.86007632 594.67708123 357.41993201 C594.79099601 386.94659923 594.89774357 416.47329007 595 446 C598.02510958 443.00428676 601.04427875 440.00265195 604.0625 437 C605.33383789 435.74123047 605.33383789 435.74123047 606.63085938 434.45703125 C611.63697223 429.47024702 616.41132655 424.37162709 621 419 C622.45445517 417.39231627 623.91220895 415.78760285 625.375 414.1875 C655.09234543 381.17377676 680.33601076 343.10587941 703 305 C703.54205078 304.09024414 704.08410156 303.18048828 704.64257812 302.24316406 C718.69160686 278.58038017 731.87913036 254.48780323 744.44677734 230.00927734 C746.64023356 225.75958521 748.88178504 221.53606382 751.125 217.3125 C755.35614997 209.33249381 759.39701678 201.26229221 763.36376953 193.14770508 C767.93506982 183.88836647 772.96060141 175.07091747 778 166 C814.3 166 850.6 166 888 166 C887.13869347 171.16783917 886.16106865 174.25061207 883.96484375 178.86328125 C883.65482422 179.51945435 883.34480469 180.17562744 883.02539062 180.85168457 C882.00360148 183.00894921 880.97088429 185.16076854 879.9375 187.3125 C879.21315382 188.83335408 878.48928465 190.35443543 877.76586914 191.87573242 C875.88875359 195.81687789 874.00121819 199.7529366 872.11035156 203.6875 C871.04371106 205.90896413 869.9802255 208.13190561 868.91796875 210.35546875 C856.71971653 235.87788362 844.11110034 261.13225328 830.03125 285.6796875 C827.64159059 289.84955289 825.32966286 294.05480445 823.04833984 298.28466797 C816.16419569 311.0251243 808.62069966 323.35419078 801.03662109 335.68505859 C799.21094133 338.6566577 797.39473938 341.6337601 795.58203125 344.61328125 C769.46710713 387.38143297 739.95187184 428.13627482 707.46337891 466.27783203 C705.95355303 468.05466081 704.45114564 469.8375854 702.94921875 471.62109375 C697.84433953 477.65965409 692.67642647 483.47969409 687.00390625 489 C685.1094865 490.89072693 683.36111341 492.83927363 681.625 494.875 C675.34127239 502.17928661 668.40096452 508.95965372 661.0703125 515.20703125 C658.6172589 517.33146824 656.25296853 519.54188637 653.875 521.75 C647.5189504 527.53060478 640.84384917 532.81136748 634 538 C633.33645508 538.50934082 632.67291016 539.01868164 631.98925781 539.54345703 C602.80107693 561.84322723 571.42850155 577.35449017 534 575 C525.27510347 573.53259086 518.04851728 569.21366516 511 564 C510.02933594 563.28457031 510.02933594 563.28457031 509.0390625 562.5546875 C504.80950825 558.89928088 502.26607852 554.32031539 499.6875 549.4375 C499.18053589 548.51046265 499.18053589 548.51046265 498.66333008 547.56469727 C492.83901907 535.82315765 493.69662715 521.5883873 493.68115234 508.79541016 C493.67183242 507.01011207 493.66166075 505.22481826 493.65071106 503.43952942 C493.62362945 498.63680163 493.60832715 493.83410281 493.59528303 489.03131914 C493.57955594 483.99581141 493.55279673 478.96036201 493.5272522 473.92489624 C493.48063285 464.40911418 493.44380769 454.89332094 493.41057932 445.37748373 C493.37223828 434.53573295 493.32285985 423.69404101 493.27259517 412.85233998 C493.16952611 390.5682702 493.08018502 368.28416311 493 346 C491.5712422 347.58429967 490.14294691 349.16901645 488.71484375 350.75390625 C487.91941162 351.6363501 487.12397949 352.51879395 486.30444336 353.42797852 C484.37309135 355.58358752 482.45974285 357.751915 480.5625 359.9375 C476.90942044 364.13303221 473.15494451 368.23373553 469.40625 372.34375 C467.41351047 374.54352741 465.4466186 376.75955218 463.5 379 C459.87055059 383.17729083 456.1352098 387.25537239 452.40625 391.34375 C450.41351047 393.54352741 448.4466186 395.75955218 446.5 398 C442.87055059 402.17729083 439.1352098 406.25537239 435.40625 410.34375 C433.41351047 412.54352741 431.4466186 414.75955218 429.5 417 C425.87055059 421.17729083 422.1352098 425.25537239 418.40625 429.34375 C416.41351047 431.54352741 414.4466186 433.75955218 412.5 436 C409.71185902 439.20899244 406.86471815 442.35916444 404 445.5 C400.54424587 449.28934126 397.1347711 453.11083698 393.76953125 456.98046875 C389.46130252 461.89736556 385.05313844 466.72639032 380.671875 471.578125 C377.27655062 475.3430085 373.88941658 479.11193551 370.5625 482.9375 C366.90942044 487.13303221 363.15494451 491.23373553 359.40625 495.34375 C357.41351047 497.54352741 355.4466186 499.75955218 353.5 502 C349.87055059 506.17729083 346.1352098 510.25537239 342.40625 514.34375 C340.41351047 516.54352741 338.4466186 518.75955218 336.5 521 C332.87055059 525.17729083 329.1352098 529.25537239 325.40625 533.34375 C323.41351047 535.54352741 321.4466186 537.75955218 319.5 540 C315.87481573 544.17238189 312.14653542 548.24781705 308.4140625 552.32421875 C306.34715069 554.61521323 304.35563552 556.94749457 302.375 559.3125 C295.27619065 567.40184088 284.7821458 574.29065779 273.80859375 575.17700195 C258.4168723 575.57479047 246.61900729 574.61568355 234 565 C232.96875 564.2575 231.9375 563.515 230.875 562.75 C224.95137346 557.08392244 221.04696175 550.53722117 218 543 C217.34 542.67 216.68 542.34 216 542 C216 395.81 216 249.62 216 99 C144.72 99 73.44 99 0 99 C0 66.33 0 33.66 0 0 Z " fill="#0F2059" transform="translate(96,252)"/>
</svg>
